{
	"asset":{
		"generator":"Khronos glTF Blender I/O v3.6.27",
		"version":"2.0"
	},
	"extensionsUsed":[
		"KHR_materials_specular"
	],
	"scene":0,
	"scenes":[
		{
			"extras":{
				"uuid":"a5140f04-f696-402c-b7af-269009926856",
				"assets reported":{},
				"assets used":{}
			},
			"name":"Scene",
			"nodes":[
				0,
				1,
				2
			]
		}
	],
	"nodes":[
		{
			"mesh":0,
			"name":"Mesh_0"
		},
		{
			"mesh":1,
			"name":"Mesh_0.002"
		},
		{
			"mesh":2,
			"name":"Mesh_0.003"
		}
	],
	"materials":[
		{
			"emissiveFactor":[
				0.20000004768371582,
				0.20000004768371582,
				0.20000004768371582
			],
			"emissiveTexture":{
				"index":0
			},
			"extensions":{
				"KHR_materials_specular":{
					"specularColorFactor":[
						0,
						0,
						0
					]
				}
			},
			"name":"Material_0",
			"pbrMetallicRoughness":{
				"baseColorTexture":{
					"index":1
				},
				"metallicFactor":0,
				"roughnessFactor":0.9522727131843567
			}
		},
		{
			"doubleSided":true,
			"emissiveTexture":{
				"index":2
			},
			"extensions":{
				"KHR_materials_specular":{
					"specularColorFactor":[
						0,
						0,
						0
					]
				}
			},
			"name":"Material.001",
			"pbrMetallicRoughness":{
				"baseColorTexture":{
					"index":3
				},
				"metallicFactor":0,
				"roughnessFactor":0.9522727131843567
			}
		}
	],
	"meshes":[
		{
			"name":"Mesh_0",
			"primitives":[
				{
					"attributes":{
						"POSITION":0,
						"NORMAL":1,
						"TEXCOORD_0":2,
						"TANGENT":3
					},
					"indices":4,
					"material":0
				}
			]
		},
		{
			"name":"Mesh_0.002",
			"primitives":[
				{
					"attributes":{
						"POSITION":5,
						"NORMAL":6,
						"TEXCOORD_0":7,
						"TANGENT":8
					},
					"indices":9,
					"material":0
				}
			]
		},
		{
			"name":"Mesh_0.003",
			"primitives":[
				{
					"attributes":{
						"POSITION":10,
						"NORMAL":11,
						"TEXCOORD_0":12,
						"TANGENT":13
					},
					"indices":14,
					"material":1
				}
			]
		}
	],
	"textures":[
		{
			"sampler":0,
			"source":0
		},
		{
			"sampler":0,
			"source":0
		},
		{
			"sampler":0,
			"source":1
		},
		{
			"sampler":0,
			"source":1
		}
	],
	"images":[
		{
			"bufferView":5,
			"mimeType":"image/jpeg",
			"name":"Image_0"
		},
		{
			"bufferView":16,
			"mimeType":"image/jpeg",
			"name":"1600px_COLOURBOX44060770"
		}
	],
	"accessors":[
		{
			"bufferView":0,
			"componentType":5126,
			"count":10502,
			"max":[
				1.0453356504440308,
				2.4319512844085693,
				1.128806471824646
			],
			"min":[
				-1.1762111186981201,
				-0.010034616105258465,
				-1.1586345434188843
			],
			"type":"VEC3"
		},
		{
			"bufferView":1,
			"componentType":5126,
			"count":10502,
			"type":"VEC3"
		},
		{
			"bufferView":2,
			"componentType":5126,
			"count":10502,
			"type":"VEC2"
		},
		{
			"bufferView":3,
			"componentType":5126,
			"count":10502,
			"type":"VEC4"
		},
		{
			"bufferView":4,
			"componentType":5123,
			"count":53733,
			"type":"SCALAR"
		},
		{
			"bufferView":6,
			"componentType":5126,
			"count":80,
			"max":[
				0.9886561036109924,
				0.24886009097099304,
				1.128806471824646
			],
			"min":[
				-0.9103226065635681,
				-0.010034616105258465,
				-0.9346690773963928
			],
			"type":"VEC3"
		},
		{
			"bufferView":7,
			"componentType":5126,
			"count":80,
			"type":"VEC3"
		},
		{
			"bufferView":8,
			"componentType":5126,
			"count":80,
			"type":"VEC2"
		},
		{
			"bufferView":9,
			"componentType":5126,
			"count":80,
			"type":"VEC4"
		},
		{
			"bufferView":10,
			"componentType":5123,
			"count":201,
			"type":"SCALAR"
		},
		{
			"bufferView":11,
			"componentType":5126,
			"count":226,
			"max":[
				0.9929724335670471,
				2.435045003890991,
				0.8388576507568359
			],
			"min":[
				-0.8711278438568115,
				2.0706048011779785,
				-1.0154024362564087
			],
			"type":"VEC3"
		},
		{
			"bufferView":12,
			"componentType":5126,
			"count":226,
			"type":"VEC3"
		},
		{
			"bufferView":13,
			"componentType":5126,
			"count":226,
			"type":"VEC2"
		},
		{
			"bufferView":14,
			"componentType":5126,
			"count":226,
			"type":"VEC4"
		},
		{
			"bufferView":15,
			"componentType":5123,
			"count":894,
			"type":"SCALAR"
		}
	],
	"bufferViews":[
		{
			"buffer":0,
			"byteLength":126024,
			"byteOffset":0,
			"target":34962
		},
		{
			"buffer":0,
			"byteLength":126024,
			"byteOffset":126024,
			"target":34962
		},
		{
			"buffer":0,
			"byteLength":84016,
			"byteOffset":252048,
			"target":34962
		},
		{
			"buffer":0,
			"byteLength":168032,
			"byteOffset":336064,
			"target":34962
		},
		{
			"buffer":0,
			"byteLength":107466,
			"byteOffset":504096,
			"target":34963
		},
		{
			"buffer":0,
			"byteLength":110401,
			"byteOffset":611564
		},
		{
			"buffer":0,
			"byteLength":960,
			"byteOffset":721968,
			"target":34962
		},
		{
			"buffer":0,
			"byteLength":960,
			"byteOffset":722928,
			"target":34962
		},
		{
			"buffer":0,
			"byteLength":640,
			"byteOffset":723888,
			"target":34962
		},
		{
			"buffer":0,
			"byteLength":1280,
			"byteOffset":724528,
			"target":34962
		},
		{
			"buffer":0,
			"byteLength":402,
			"byteOffset":725808,
			"target":34963
		},
		{
			"buffer":0,
			"byteLength":2712,
			"byteOffset":726212,
			"target":34962
		},
		{
			"buffer":0,
			"byteLength":2712,
			"byteOffset":728924,
			"target":34962
		},
		{
			"buffer":0,
			"byteLength":1808,
			"byteOffset":731636,
			"target":34962
		},
		{
			"buffer":0,
			"byteLength":3616,
			"byteOffset":733444,
			"target":34962
		},
		{
			"buffer":0,
			"byteLength":1788,
			"byteOffset":737060,
			"target":34963
		},
		{
			"buffer":0,
			"byteLength":156680,
			"byteOffset":738848
		}
	],
	"samplers":[
		{
			"magFilter":9729,
			"minFilter":9987
		}
	],
	"buffers":[
		{
			"byteLength":895528,
			"uri":"data:application/octet-stream;base64,"
		}
	]
}
