<svg width="43" height="43" viewBox="0 0 43 43" fill="none" xmlns="http://www.w3.org/2000/svg">
<mask id="mask0_158_59" style="mask-type:luminance" maskUnits="userSpaceOnUse" x="0" y="0" width="43" height="43">
<path d="M43 0H0V43H43V0Z" fill="white"/>
</mask>
<g mask="url(#mask0_158_59)">
<path d="M4.47939 29.7016H11.0416C11.4944 29.7016 12.122 29.9616 12.4418 30.2814L19.9648 37.8051C20.9255 38.7652 21.7049 38.442 21.7049 37.0841V5.91317C21.7049 4.55531 20.9255 4.23214 19.9648 5.19292L12.4418 12.7159C12.122 13.0364 11.4944 13.2957 11.0416 13.2957H4.47939C3.12086 13.2957 2.01831 14.399 2.01831 15.7568V27.2405C2.01831 28.599 3.12086 29.7016 4.47939 29.7016Z" fill="#F9F7F1"/>
<path fill-rule="evenodd" clip-rule="evenodd" d="M37.7002 21.5C37.7002 17.7926 36.5272 14.1752 34.3456 11.1726C32.2043 8.21972 29.2104 5.98036 25.7738 4.75822L24.9964 4.48275C24.5698 4.33158 24.3467 3.86194 24.4979 3.43597L25.0475 1.88931C25.1993 1.46267 25.669 1.23961 26.095 1.39145L26.8649 1.66558C30.9331 3.10944 34.4685 5.75058 37.0035 9.245C39.5869 12.8053 40.9817 17.0952 40.9817 21.5C40.9817 25.8967 39.5869 30.1867 37.0035 33.7469C34.4685 37.2414 30.9331 39.8906 26.8649 41.3344L26.095 41.6085C25.669 41.7604 25.1993 41.5373 25.0475 41.1107L24.4979 39.564C24.3467 39.1381 24.5698 38.6684 24.9964 38.5172L25.7738 38.2418C29.2104 37.0196 32.2043 34.7803 34.3456 31.8274C36.5272 28.8248 37.7002 25.2074 37.7002 21.5Z" fill="#F9F7F1"/>
<path d="M25.585 13.0922L24.8493 12.7226C24.4448 12.519 24.2816 12.0252 24.4851 11.6208L25.2249 10.15C25.4278 9.74555 25.9209 9.58295 26.3254 9.7872L27.053 10.1554C29.1943 11.2304 31.0151 12.8295 32.3602 14.8068C33.6892 16.7834 34.4114 19.1128 34.4195 21.5C34.4114 23.8872 33.6892 26.2085 32.3602 28.1852C31.0151 30.1618 29.1943 31.7615 27.053 32.8365L26.3254 33.2041C25.9209 33.4083 25.4278 33.2464 25.2242 32.8419L24.4858 31.3786C24.2822 30.9741 24.4448 30.481 24.8493 30.2774L25.585 29.9078C27.2177 29.0875 28.6118 27.8573 29.6451 26.3476C30.6052 24.9125 31.13 23.2308 31.138 21.5C31.13 19.7693 30.6052 18.0795 29.6451 16.6524C28.6118 15.1347 27.2177 13.9125 25.585 13.0922Z" fill="#F9F7F1"/>
</g>
</svg>
