<svg width="30" height="32" viewBox="0 0 30 32" fill="none" xmlns="http://www.w3.org/2000/svg">
<g id="&#208;&#155;&#209;&#131;&#208;&#191;&#208;&#176;">
<g clip-path="url(#clip0_169_3)">
<g id="&#208;&#155;&#209;&#131;&#208;&#191;&#208;&#176;_2">
<path id="search" d="M21.8381 25.315L17.7597 20.9833C19.0755 19.1976 19.7895 16.9924 19.7869 14.7222C19.7869 12.7005 19.2241 10.7241 18.1696 9.04306C17.1151 7.36202 15.6164 6.05181 13.8629 5.27812C12.1094 4.50442 10.1799 4.30199 8.31835 4.69641C6.45683 5.09084 4.74692 6.06441 3.40484 7.49402C2.06276 8.92362 1.14879 10.745 0.778512 12.728C0.408234 14.7109 0.598274 16.7662 1.3246 18.6341C2.05093 20.502 3.28092 22.0985 4.85904 23.2217C6.43716 24.3449 8.29252 24.9444 10.1905 24.9444C12.3217 24.9473 14.3919 24.1867 16.0683 22.785L20.1348 27.1294C20.2463 27.2492 20.3789 27.3443 20.5251 27.4091C20.6713 27.474 20.8281 27.5074 20.9864 27.5074C21.1448 27.5074 21.3016 27.474 21.4478 27.4091C21.5939 27.3443 21.7266 27.2492 21.8381 27.1294C21.9506 27.0107 22.0398 26.8693 22.1007 26.7136C22.1616 26.5579 22.1929 26.3909 22.1929 26.2222C22.1929 26.0535 22.1616 25.8865 22.1007 25.7308C22.0398 25.5751 21.9506 25.4338 21.8381 25.315ZM2.99322 14.7222C2.99322 13.2059 3.41533 11.7236 4.20618 10.4628C4.99703 9.20207 6.12109 8.21941 7.43622 7.63914C8.75136 7.05887 10.1985 6.90705 11.5946 7.20287C12.9908 7.49869 14.2732 8.22886 15.2798 9.30107C16.2863 10.3733 16.9718 11.7393 17.2495 13.2265C17.5272 14.7137 17.3847 16.2552 16.8399 17.6561C16.2952 19.057 15.3727 20.2544 14.1891 21.0968C13.0055 21.9392 11.614 22.3889 10.1905 22.3889C8.28167 22.3889 6.45101 21.5812 5.10125 20.1434C3.7515 18.7056 2.99322 16.7555 2.99322 14.7222Z" fill="#F9F7F1"/>
</g>
</g>
</g>
<defs>
<clipPath id="clip0_169_3">
<rect x="0.594116" y="0.666664" width="28.7892" height="30.6667" rx="14.3946" fill="white"/>
</clipPath>
</defs>
</svg>
